<svg width="16" height="22" viewBox="0 0 16 22" fill="none" xmlns="http://www.w3.org/2000/svg">
<path d="M7.81382 9.93149C7.71058 9.92116 7.5867 9.92116 7.47314 9.93149C5.01607 9.8489 3.06488 7.83576 3.06488 5.35805C3.06488 2.82872 5.10899 0.774284 7.64864 0.774284C10.178 0.774284 12.2324 2.82872 12.2324 5.35805C12.2221 7.83576 10.2709 9.8489 7.81382 9.93149Z" stroke="#292D32" stroke-width="1.5" stroke-linecap="round" stroke-linejoin="round"/>
<path d="M2.64805 13.741C0.149695 15.4134 0.149695 18.1389 2.64805 19.801C5.4871 21.7006 10.1431 21.7006 12.9822 19.801C15.4805 18.1286 15.4805 15.4031 12.9822 13.741C10.1535 11.8517 5.49742 11.8517 2.64805 13.741Z" stroke="#292D32" stroke-width="1.5" stroke-linecap="round" stroke-linejoin="round"/>
</svg>
