<svg width="32" height="32" viewBox="0 0 32 32" fill="none" xmlns="http://www.w3.org/2000/svg">
<path fill-rule="evenodd" clip-rule="evenodd" d="M12.7017 8.048C11.8503 8.08686 11.2686 8.22171 10.7589 8.42057C10.2331 8.624 9.78743 8.89829 9.34171 9.34286C8.89829 9.78743 8.624 10.2343 8.42057 10.76C8.22171 11.2686 8.08686 11.8503 8.048 12.7017C8.00914 13.5543 8 13.8274 8 16C8 18.1726 8.00914 18.4457 8.048 19.2983C8.08686 20.1497 8.22171 20.7314 8.42057 21.2411C8.624 21.7669 8.89829 22.2126 9.34286 22.6583C9.78743 23.1017 10.2343 23.376 10.76 23.5806C11.2686 23.7783 11.8503 23.912 12.7017 23.952C13.5554 23.9909 13.8274 24 16 24C18.1726 24 18.4457 23.9909 19.2983 23.952C20.1497 23.9131 20.7314 23.7783 21.2411 23.5806C21.7669 23.3749 22.2126 23.1017 22.6583 22.6571C23.1017 22.2126 23.376 21.7657 23.5806 21.24C23.7783 20.7314 23.912 20.1497 23.952 19.2983C23.9909 18.4446 24 18.1726 24 16C24 13.8274 23.9909 13.5543 23.952 12.7017C23.9131 11.8503 23.7783 11.2686 23.5806 10.7589C23.3795 10.2249 23.0644 9.74131 22.6571 9.34171C22.2126 8.89829 21.7657 8.624 21.24 8.42057C20.7314 8.22171 20.1497 8.08686 19.2983 8.048C18.4457 8.00914 18.1726 8 16 8C13.8274 8 13.5543 8.00914 12.7017 8.048ZM11.8914 16C11.8914 17.0897 12.3243 18.1347 13.0948 18.9052C13.8653 19.6757 14.9103 20.1086 16 20.1086C17.0897 20.1086 18.1347 19.6757 18.9052 18.9052C19.6757 18.1347 20.1086 17.0897 20.1086 16C20.1086 14.9103 19.6757 13.8653 18.9052 13.0948C18.1347 12.3243 17.0897 11.8914 16 11.8914C14.9103 11.8914 13.8653 12.3243 13.0948 13.0948C12.3243 13.8653 11.8914 14.9103 11.8914 16ZM16 18.6663C15.2929 18.6663 14.6147 18.3854 14.1147 17.8853C13.6146 17.3853 13.3337 16.7071 13.3337 16C13.3337 15.2929 13.6146 14.6147 14.1147 14.1147C14.6147 13.6146 15.2929 13.3337 16 13.3337C16.7071 13.3337 17.3853 13.6146 17.8853 14.1147C18.3854 14.6147 18.6663 15.2929 18.6663 16C18.6663 16.7071 18.3854 17.3853 17.8853 17.8853C17.3853 18.3854 16.7071 18.6663 16 18.6663ZM21.6 11.44C21.6 11.5661 21.5752 11.6909 21.5269 11.8074C21.4787 11.9238 21.408 12.0297 21.3188 12.1188C21.2297 12.208 21.1238 12.2787 21.0074 12.3269C20.8909 12.3752 20.7661 12.4 20.64 12.4C20.5139 12.4 20.3891 12.3752 20.2726 12.3269C20.1562 12.2787 20.0503 12.208 19.9612 12.1188C19.872 12.0297 19.8013 11.9238 19.7531 11.8074C19.7048 11.6909 19.68 11.5661 19.68 11.44C19.68 11.1854 19.7811 10.9412 19.9612 10.7612C20.1412 10.5811 20.3854 10.48 20.64 10.48C20.8946 10.48 21.1388 10.5811 21.3188 10.7612C21.4989 10.9412 21.6 11.1854 21.6 11.44Z" fill="white"/>
</svg>
