<svg width="24" height="24" viewBox="0 0 24 24" fill="none" xmlns="http://www.w3.org/2000/svg">
<path fill-rule="evenodd" clip-rule="evenodd" d="M0 0H45.6005V1.84617H0V0ZM0 3.69234H45.6005V5.53852H0V3.69234ZM0 7.38469H45.6005V9.23086H0V7.38469ZM0 11.077H45.6005V12.9232H0V11.077ZM0 14.7694H45.6005V16.6155H0V14.7694ZM0 18.4617H45.6005V20.3079H0V18.4617ZM0 22.1541H45.6005V24.0002H0V22.1541Z" fill="#BD3D44"/>
<path fill-rule="evenodd" clip-rule="evenodd" d="M0 1.8457H45.6005V3.69187H0V1.8457ZM0 5.53805H45.6005V7.38422H0V5.53805ZM0 9.23039H45.6005V11.0766H0V9.23039ZM0 12.9227H45.6005V14.7689H0V12.9227ZM0 16.6151H45.6005V18.4613H0V16.6151ZM0 20.3074H45.6005V22.1536H0V20.3074Z" fill="white"/>
<path fill-rule="evenodd" clip-rule="evenodd" d="M0 0H18.2402V12.9232H0V0Z" fill="#192F5D"/>
<path fill-rule="evenodd" clip-rule="evenodd" d="M1.51319 0.553711L1.69778 1.0706H2.21472L1.79008 1.38448L1.95625 1.88295L1.51319 1.56907L1.10702 1.88295L1.27319 1.38448L0.830078 1.0706H1.384L1.51319 0.553711ZM4.55936 0.553711L4.72553 1.0706H5.26089L4.81783 1.38448L5.00242 1.88295L4.55936 1.56907L4.1163 1.88295L4.30089 1.38448L3.85783 1.0706H4.39319L4.55936 0.553711ZM7.60553 0.553711L7.7717 1.0706H8.30706L7.864 1.38448L8.04864 1.88295L7.60553 1.56907L7.16247 1.88295L7.34706 1.38448L6.904 1.0706H7.43941L7.60553 0.553711ZM10.6333 0.553711L10.8179 1.0706H11.3348L10.9102 1.38448L11.0763 1.88295L10.6333 1.56907L10.2086 1.88295L10.3748 1.38448L9.9317 1.0706H10.4856L10.6333 0.553711ZM13.6795 0.553711L13.8456 1.0706H14.381L13.9379 1.38448L14.1225 1.88295L13.661 1.56907L13.2363 1.88295L13.4025 1.38448L12.9595 1.0706H13.4948L13.6795 0.553711ZM16.7256 0.553711L16.8918 1.0706H17.4272L16.9841 1.38448L17.1687 1.88295L16.7256 1.56907L16.2826 1.88295L16.4672 1.38448L16.0241 1.0706H16.5595L16.7256 0.553711ZM3.04548 1.84601L3.21166 2.36295H3.74706L3.30395 2.67677L3.48859 3.17524L3.04548 2.86141L2.60242 3.17524L2.78702 2.67677L2.34395 2.36295H2.87936L3.04548 1.84601ZM6.07323 1.84601L6.25783 2.36295H6.77477L6.35012 2.67677L6.5163 3.17524L6.07323 2.86141L5.64859 3.17524L5.81477 2.67677L5.37166 2.36295H5.92553L6.07323 1.84601ZM9.11941 1.84601L9.28558 2.36295H9.82094L9.37787 2.67677L9.56247 3.17524L9.11941 2.86141L8.6763 3.17524L8.86094 2.67677L8.41787 2.36295H8.95323L9.11941 1.84601ZM12.1656 1.84601L12.3318 2.36295H12.8671L12.424 2.67677L12.6087 3.17524L12.1656 2.86141L11.7225 3.17524L11.9071 2.67677L11.464 2.36295H11.9995L12.1656 1.84601ZM15.1933 1.84601L15.3779 2.36295H15.8764L15.4518 2.67677L15.6179 3.17524L15.1749 2.86141L14.7502 3.17524L14.9164 2.67677L14.4733 2.36295H15.0272L15.1933 1.84601ZM1.53161 3.13835L1.67931 3.65524H2.23319L1.79008 3.96912L1.95625 4.46759L1.51319 4.15371L1.10702 4.46759L1.27319 3.96912L0.830078 3.65524H1.384L1.53161 3.13835ZM4.55936 3.13835L4.72553 3.65524H5.26089L4.8363 3.96912L5.00242 4.46759L4.55936 4.15371L4.13472 4.46759L4.30089 3.96912L3.85783 3.65524H4.39319L4.55936 3.13835ZM7.60553 3.13835L7.7717 3.65524H8.30706L7.864 3.96912L8.04864 4.46759L7.60553 4.15371L7.16247 4.46759L7.34706 3.96912L6.904 3.65524H7.43941L7.60553 3.13835ZM10.6333 3.13835L10.8179 3.65524H11.3348L10.9102 3.96912L11.0763 4.46759L10.6333 4.15371L10.2086 4.46759L10.3748 3.96912L9.9317 3.65524H10.4856L10.6333 3.13835ZM13.6795 3.13835L13.8456 3.65524H14.381L13.9564 3.96912L14.1225 4.46759L13.6795 4.15371L13.2548 4.46759L13.421 3.96912L12.9779 3.65524H13.5133L13.6795 3.13835ZM16.7256 3.13835L16.8918 3.65524H17.4272L16.9841 3.96912L17.1687 4.46759L16.7256 4.15371L16.2826 4.46759L16.4672 3.96912L16.0241 3.65524H16.5595L16.7256 3.13835ZM3.04548 4.4306L3.21166 4.94754H3.74706L3.30395 5.26137L3.48859 5.75984L3.04548 5.44601L2.60242 5.75984L2.78702 5.26137L2.34395 4.94754H2.87936L3.04548 4.4306ZM6.07323 4.4306L6.25783 4.94754H6.77477L6.35012 5.26137L6.5163 5.75984L6.07323 5.44601L5.64859 5.75984L5.81477 5.26137L5.37166 4.94754H5.92553L6.07323 4.4306ZM9.11941 4.4306L9.28558 4.94754H9.82094L9.39634 5.26137L9.56247 5.75984L9.11941 5.44601L8.69477 5.75984L8.86094 5.26137L8.41787 4.94754H8.95323L9.11941 4.4306ZM12.1656 4.4306L12.3318 4.94754H12.8671L12.424 5.26137L12.6087 5.75988L12.1656 5.44605L11.7225 5.75988L11.9071 5.26141L11.464 4.94759H11.9995L12.1656 4.4306ZM15.1933 4.4306L15.3779 4.94754H15.8764L15.4518 5.26137L15.6179 5.75984L15.1749 5.44601L14.7502 5.75984L14.9164 5.26137L14.4733 4.94754H15.0272L15.1933 4.4306ZM1.53161 5.72295L1.67931 6.23984H2.23319L1.79008 6.55371L1.95625 7.05218L1.51319 6.73831L1.10702 7.05218L1.27319 6.55371L0.830078 6.23984H1.384L1.53161 5.72295ZM4.55936 5.72295L4.72553 6.23984H5.26089L4.8363 6.55371L5.00242 7.05218L4.55936 6.73831L4.13472 7.05218L4.30089 6.55371L3.85783 6.23984H4.39319L4.55936 5.72295ZM7.60553 5.72295L7.7717 6.23984H8.30706L7.864 6.55371L8.04864 7.05218L7.60553 6.73831L7.16247 7.05218L7.34706 6.55371L6.904 6.23984H7.43941L7.60553 5.72295ZM10.6333 5.72295L10.8179 6.23984H11.3348L10.9102 6.55371L11.0763 7.05218L10.6333 6.73831L10.2086 7.05218L10.3748 6.55371L9.9317 6.23984H10.4856L10.6333 5.72295ZM13.6795 5.72295L13.8456 6.23984H14.381L13.9564 6.55371L14.1225 7.05218L13.6795 6.73831L13.2548 7.05218L13.421 6.55371L12.9779 6.23984H13.5133L13.6795 5.72295ZM16.7256 5.72295L16.8918 6.23984H17.4272L16.9841 6.55371L17.1687 7.05218L16.7256 6.73831L16.2826 7.05218L16.4672 6.55371L16.0241 6.23984H16.5595L16.7256 5.72295ZM3.04548 7.01524L3.21166 7.53218H3.74706L3.30395 7.84601L3.48859 8.34448L3.04548 8.03065L2.60242 8.34448L2.78702 7.84601L2.34395 7.53218H2.87936L3.04548 7.01524ZM6.07323 7.01524L6.25783 7.53218H6.77477L6.35012 7.84601L6.5163 8.34448L6.07323 8.03065L5.64859 8.34448L5.81477 7.84601L5.37166 7.53218H5.92553L6.07323 7.01524ZM9.11941 7.01524L9.28558 7.53218H9.82094L9.39634 7.84601L9.56247 8.34448L9.11941 8.03065L8.69477 8.34448L8.86094 7.84601L8.41787 7.53218H8.95323L9.11941 7.01524ZM12.1656 7.01524L12.3318 7.53218H12.8671L12.424 7.84601L12.6087 8.34452L12.1656 8.0307L11.7225 8.34452L11.9071 7.84606L11.464 7.53223H11.9995L12.1656 7.01524ZM15.1933 7.01524L15.3779 7.53218H15.8764L15.4518 7.84601L15.6179 8.34448L15.1749 8.03065L14.7502 8.34448L14.9164 7.84601L14.4733 7.53218H15.0272L15.1933 7.01524ZM1.53161 8.30759L1.67931 8.82448H2.23319L1.79008 9.13835L1.95625 9.63682L1.51319 9.32295L1.10702 9.63682L1.27319 9.13835L0.830078 8.82448H1.384L1.53161 8.30759ZM4.55936 8.30759L4.72553 8.82448H5.26089L4.8363 9.13835L5.00242 9.63682L4.55936 9.32295L4.13472 9.63682L4.30089 9.13835L3.85783 8.82448H4.39319L4.55936 8.30759ZM7.60553 8.30759L7.7717 8.82448H8.30706L7.864 9.13835L8.04864 9.63682L7.60553 9.32295L7.16247 9.63682L7.34706 9.13835L6.904 8.82448H7.43941L7.60553 8.30759ZM10.6333 8.30759L10.8179 8.82448H11.3348L10.9102 9.13835L11.0763 9.63682L10.6333 9.32295L10.2086 9.63682L10.3748 9.13835L9.9317 8.82448H10.4856L10.6333 8.30759ZM13.6795 8.30759L13.8456 8.82448H14.381L13.9564 9.13835L14.1225 9.63682L13.6795 9.32295L13.2548 9.63682L13.421 9.13835L12.9779 8.82448H13.5133L13.6795 8.30759ZM16.7256 8.30759L16.8918 8.82448H17.4272L16.9841 9.13835L17.1687 9.63682L16.7256 9.32295L16.2826 9.63682L16.4672 9.13835L16.0241 8.82448H16.5595L16.7256 8.30759ZM3.04548 9.59993L3.21166 10.1169H3.74706L3.30395 10.4307L3.48859 10.9292L3.04548 10.6153L2.60242 10.9292L2.78702 10.4307L2.34395 10.1169H2.87936L3.04548 9.59993ZM6.07323 9.59993L6.25783 10.1169H6.77477L6.35012 10.4307L6.5163 10.9292L6.07323 10.6153L5.64859 10.9292L5.81477 10.4307L5.37166 10.1169H5.92553L6.07323 9.59993ZM9.11941 9.59993L9.28558 10.1169H9.82094L9.39634 10.4307L9.56247 10.9292L9.11941 10.6153L8.69477 10.9292L8.86094 10.4307L8.41787 10.1169H8.95323L9.11941 9.59993ZM12.1656 9.59993L12.3318 10.1169H12.8671L12.424 10.4307L12.6087 10.9292L12.1656 10.6154L11.7225 10.9292L11.9071 10.4307L11.464 10.1169H11.9995L12.1656 9.59993ZM15.1933 9.59993L15.3779 10.1169H15.8764L15.4518 10.4307L15.6179 10.9292L15.1749 10.6153L14.7502 10.9292L14.9164 10.4307L14.4733 10.1169H15.0272L15.1933 9.59993ZM1.53161 10.8923L1.67931 11.4092H2.23319L1.79008 11.723L1.95625 12.2215L1.51319 11.9076L1.10702 12.2215L1.27319 11.723L0.830078 11.4092H1.384L1.53161 10.8923ZM4.55936 10.8923L4.72553 11.4092H5.26089L4.8363 11.723L5.00242 12.2215L4.55936 11.9076L4.13472 12.2215L4.30089 11.723L3.85783 11.4092H4.39319L4.55936 10.8923ZM7.60553 10.8923L7.7717 11.4092H8.30706L7.864 11.723L8.04864 12.2215L7.60553 11.9076L7.16247 12.2215L7.34706 11.723L6.904 11.4092H7.43941L7.60553 10.8923ZM10.6333 10.8923L10.8179 11.4092H11.3348L10.9102 11.723L11.0763 12.2215L10.6333 11.9076L10.2086 12.2215L10.3748 11.723L9.9317 11.4092H10.4856L10.6333 10.8923ZM13.6795 10.8923L13.8456 11.4092H14.381L13.9564 11.723L14.1225 12.2215L13.6795 11.9076L13.2548 12.2215L13.421 11.723L12.9779 11.4092H13.5133L13.6795 10.8923ZM16.7256 10.8923L16.8918 11.4092H17.4272L16.9841 11.723L17.1687 12.2215L16.7256 11.9076L16.2826 12.2215L16.4672 11.723L16.0241 11.4092H16.5595L16.7256 10.8923Z" fill="white"/>
</svg>
