<svg width="40" height="17" viewBox="0 0 40 17" fill="none" xmlns="http://www.w3.org/2000/svg">
<path d="M7.31601 2.11769C7.77203 1.54767 8.08124 0.782118 7.99971 0C7.33257 0.0331296 6.51862 0.440104 6.04701 1.01078C5.6238 1.49928 5.2493 2.29666 5.34674 3.04597C6.09573 3.11093 6.84407 2.6718 7.31601 2.11769Z" fill="black"/>
<path d="M7.99138 3.19263C6.9033 3.12767 5.97892 3.80975 5.45956 3.80975C4.93988 3.80975 4.14444 3.22511 3.28405 3.24102C2.16446 3.25726 1.12575 3.89062 0.557347 4.8975C-0.611286 6.91126 0.248786 9.89942 1.38559 11.5397C1.93742 12.3517 2.60262 13.2449 3.47893 13.2127C4.30717 13.1802 4.63165 12.6768 5.63788 12.6768C6.64379 12.6768 6.93611 13.2127 7.81274 13.1965C8.72154 13.1802 9.28994 12.3845 9.84177 11.5725C10.4751 10.6468 10.734 9.75358 10.7502 9.70486C10.734 9.68862 8.99761 9.02246 8.98138 7.02494C8.96514 5.35222 10.3449 4.55646 10.4098 4.50741C9.63065 3.35503 8.4133 3.22511 7.99106 3.19263" fill="black"/>
<path d="M18.8352 0.931081C21.1991 0.931081 22.8455 2.5606 22.8455 4.93294C22.8455 7.31372 21.1653 8.95169 18.776 8.95169H16.1588V13.1143H14.2678V0.931081H18.8352ZM16.1588 7.36439H18.3285C19.9752 7.36439 20.9119 6.47801 20.9119 4.94138C20.9119 3.40508 19.9749 2.52682 18.3369 2.52682H16.1588V7.36439Z" fill="black"/>
<path d="M23.315 10.5892C23.315 9.02722 24.5054 8.1324 26.7004 7.99728L29.0558 7.85372V7.17814C29.0558 6.19075 28.4059 5.65028 27.2493 5.65028C26.295 5.65028 25.6026 6.13975 25.4596 6.89102H23.7538C23.8048 5.31249 25.2904 4.16432 27.3 4.16432C29.4612 4.16432 30.8711 5.2956 30.8711 7.05179V13.1135H29.1237V11.6529H29.0815C28.5832 12.6068 27.4854 13.2061 26.295 13.2061C24.5392 13.2061 23.315 12.1596 23.315 10.5892ZM29.0558 9.80414V9.12012L26.9537 9.25523C25.7715 9.33124 25.1556 9.77004 25.1556 10.5382C25.1556 11.2813 25.7971 11.7627 26.8017 11.7627C28.0847 11.7627 29.0558 10.9435 29.0558 9.80414Z" fill="black"/>
<path d="M32.4776 16.3722V14.9119C32.5958 14.9285 32.8826 14.9454 33.0346 14.9454C33.8704 14.9454 34.3433 14.5913 34.6304 13.679L34.7993 13.1388L31.5994 4.27408H33.5748L35.8039 11.4671H35.8461L38.0749 4.27408H40L36.6818 13.5861C35.9218 15.7223 35.0523 16.4232 33.212 16.4232C33.0684 16.4232 32.604 16.4063 32.4776 16.3722Z" fill="black"/>
</svg>
