<svg width="43" height="11" viewBox="0 0 43 11" fill="none" xmlns="http://www.w3.org/2000/svg">
<path d="M7.11992 3.24843L8.22852 5.9354H6.01992L7.11992 3.24843ZM30.144 3.36015H25.8801V4.54465H30.0753V6.31925H25.8887V7.63982H30.1526V8.69828L33.1275 5.4828L30.1526 2.13124L30.144 3.36015ZM10.0017 0.0085931H15.7237L16.9941 2.78007L18.1715 0H33.0243L34.5684 1.70442L36.1654 0H42.9874L37.9471 5.51717L42.9358 11H36.0121L34.4681 9.29555L32.8568 11H8.63672L7.92917 9.29555H6.31068L5.60169 11H0L4.70651 0H9.61927L10.0017 0.0085931ZM22.4096 1.5526H19.2027L17.0543 6.61717L14.7268 1.5526H11.5443V8.44191L8.59375 1.5526H5.73919L2.32747 9.44737H4.55469L5.26224 7.74295H8.98047L9.68802 9.44737H13.5839V3.81132L16.0918 9.45597H17.7962L20.2884 3.82851V9.4574H22.3767L22.4111 1.55117L22.4096 1.5526ZM35.7872 5.51717L39.4124 1.5526H36.8027L34.5096 4.02473L32.2924 1.5526H23.8505V9.45597H32.1721L34.4839 6.96665L36.701 9.45597H39.3866L35.7872 5.51717Z" fill="white"/>
</svg>
