<svg width="15" height="15" viewBox="0 0 15 15" fill="none" xmlns="http://www.w3.org/2000/svg">
<path d="M14.4635 6.72767V1.98693C14.4635 0.941176 14.0173 0.522876 12.9088 0.522876H10.0923C8.98377 0.522876 8.53758 0.941176 8.53758 1.98693V6.72767C8.53758 7.77342 8.98377 8.19172 10.0923 8.19172H12.9088C14.0173 8.19172 14.4635 7.77342 14.4635 6.72767Z" stroke="#EB4C6B" stroke-linecap="round" stroke-linejoin="round"/>
<path d="M14.4635 13.0131V11.7582C14.4635 10.7124 14.0173 10.2941 12.9088 10.2941H10.0923C8.98377 10.2941 8.53758 10.7124 8.53758 11.7582V13.0131C8.53758 14.0588 8.98377 14.4771 10.0923 14.4771H12.9088C14.0173 14.4771 14.4635 14.0588 14.4635 13.0131Z" stroke="#EB4C6B" stroke-linecap="round" stroke-linejoin="round"/>
<path d="M6.4488 8.26144V13.0022C6.4488 14.0479 6.00261 14.4662 4.89412 14.4662H2.07756C0.969063 14.4662 0.522876 14.0479 0.522876 13.0022V8.26144C0.522876 7.21569 0.969063 6.79739 2.07756 6.79739H4.89412C6.00261 6.79739 6.4488 7.21569 6.4488 8.26144Z" stroke="#EB4C6B" stroke-linecap="round" stroke-linejoin="round"/>
<path d="M6.4488 1.98693V3.24183C6.4488 4.28758 6.00261 4.70588 4.89412 4.70588H2.07756C0.969063 4.70588 0.522876 4.28758 0.522876 3.24183V1.98693C0.522876 0.941176 0.969063 0.522876 2.07756 0.522876H4.89412C6.00261 0.522876 6.4488 0.941176 6.4488 1.98693Z" stroke="#EB4C6B" stroke-linecap="round" stroke-linejoin="round"/>
</svg>
