<svg width="41" height="17" viewBox="0 0 41 17" fill="none" xmlns="http://www.w3.org/2000/svg">
<path d="M23.9751 4.79362C23.9751 7.20696 22.2722 8.9287 19.8936 8.9287H17.6524C17.6154 8.92926 17.5793 8.94047 17.5485 8.961C17.5177 8.98153 17.4935 9.0105 17.4788 9.04445C17.4693 9.06689 17.4644 9.09099 17.4643 9.11534V12.2868C17.4643 12.3115 17.4594 12.3359 17.45 12.3586C17.4405 12.3813 17.4266 12.402 17.4091 12.4193C17.3917 12.4367 17.3709 12.4504 17.3481 12.4597C17.3253 12.469 17.3009 12.4737 17.2762 12.4735H15.7078C15.658 12.4735 15.6101 12.4537 15.5748 12.4184C15.5396 12.3831 15.5197 12.3353 15.5197 12.2854V0.848069C15.5192 0.810805 15.5299 0.774242 15.5506 0.743233C15.5713 0.712224 15.6009 0.688235 15.6355 0.674447C15.6584 0.664859 15.683 0.65994 15.7078 0.659978H19.9037C22.2722 0.659978 23.9751 2.38028 23.9751 4.79362ZM22.019 4.79362C22.019 3.40754 21.067 2.39475 19.7764 2.39475H17.6524C17.6277 2.39475 17.6032 2.39961 17.5804 2.40906C17.5576 2.41852 17.5369 2.43237 17.5194 2.44984C17.5019 2.4673 17.4881 2.48804 17.4786 2.51086C17.4692 2.53368 17.4643 2.55814 17.4643 2.58284V6.99572C17.464 7.02046 17.4688 7.04501 17.4782 7.06788C17.4877 7.09075 17.5016 7.11148 17.5193 7.12883C17.5367 7.14635 17.5575 7.16023 17.5803 7.16967C17.6032 7.17911 17.6277 7.18391 17.6524 7.18381H19.7764C21.067 7.19104 22.019 6.17825 22.019 4.79362ZM24.441 10.2786C24.4245 9.90794 24.5016 9.53907 24.6652 9.20605C24.8288 8.87303 25.0736 8.58657 25.3771 8.37311C25.9892 7.91591 26.9455 7.67863 28.3504 7.62943L29.845 7.57735V7.13895C29.845 6.26072 29.2518 5.89033 28.2998 5.89033C27.3477 5.89033 26.7444 6.22455 26.607 6.7729C26.5952 6.81142 26.5712 6.84503 26.5385 6.86856C26.5058 6.89208 26.4663 6.90422 26.4261 6.90312H24.9474C24.9067 6.90364 24.867 6.89095 24.8341 6.86695C24.8012 6.84295 24.777 6.80893 24.7651 6.77001C24.7573 6.74424 24.7553 6.71706 24.7593 6.69043C24.9793 5.39116 26.0673 4.40442 28.3678 4.40442C30.8158 4.40442 31.6999 5.5373 31.6999 7.69744V12.2868C31.6997 12.3117 31.6946 12.3362 31.6849 12.359C31.6751 12.3819 31.661 12.4026 31.6432 12.4199C31.6255 12.4373 31.6045 12.4509 31.5814 12.4601C31.5584 12.4693 31.5337 12.4739 31.5089 12.4735H30.0186C29.9687 12.4735 29.9209 12.4537 29.8856 12.4184C29.8504 12.3831 29.8305 12.3353 29.8305 12.2854V11.9439C29.831 11.9156 29.8228 11.8878 29.807 11.8643C29.7913 11.8407 29.7687 11.8226 29.7423 11.8123C29.7162 11.802 29.6876 11.7995 29.6601 11.8052C29.6327 11.8108 29.6074 11.8243 29.5875 11.8441C29.1389 12.3273 28.4184 12.676 27.2624 12.676C25.5623 12.676 24.441 11.7978 24.441 10.2786ZM29.845 9.28463V8.9287L27.9077 9.02998C26.8876 9.08207 26.2944 9.50165 26.2944 10.2106C26.2944 10.853 26.8385 11.2089 27.7905 11.2089C29.0825 11.2089 29.845 10.5144 29.845 9.28463ZM33.1959 15.9401V14.6105C33.1963 14.5826 33.2028 14.5552 33.2151 14.5301C33.2273 14.5051 33.245 14.4831 33.2668 14.4658C33.2884 14.4483 33.3136 14.4357 33.3406 14.429C33.3676 14.4222 33.3957 14.4215 33.4231 14.4267C33.6517 14.4687 33.8832 14.4904 34.1161 14.4904C34.5151 14.5122 34.9098 14.3991 35.2366 14.1691C35.5634 13.9392 35.8033 13.6059 35.9174 13.2229L36.0144 12.9177C36.0288 12.8764 36.0288 12.8315 36.0144 12.7903L32.9109 4.87464C32.8929 4.8312 32.8918 4.78259 32.9079 4.73841C32.924 4.69422 32.956 4.65765 32.9977 4.63591C33.0253 4.62134 33.0562 4.61388 33.0874 4.61421H34.5921C34.6307 4.61431 34.6684 4.62612 34.7002 4.64807C34.732 4.67003 34.7563 4.7011 34.7701 4.73719L36.8767 10.3206C36.8897 10.3581 36.9142 10.3905 36.9466 10.4133C36.9791 10.4362 37.0179 10.4483 37.0576 10.4479C37.0971 10.4478 37.1357 10.4356 37.1681 10.4128C37.2005 10.39 37.225 10.3578 37.2384 10.3206L39.0687 4.75311C39.0811 4.71472 39.1055 4.68134 39.1383 4.65789C39.1711 4.63445 39.2106 4.62218 39.251 4.62289H40.8078C40.8545 4.62316 40.8995 4.64029 40.9346 4.67113C40.9697 4.70197 40.9925 4.74443 40.9988 4.79072C41.0023 4.8216 40.9983 4.85286 40.9872 4.88187L37.6667 13.6729C36.9027 15.7173 35.5933 16.2382 34.1508 16.2382C33.8771 16.2457 33.6037 16.2135 33.3391 16.1427C33.2948 16.1318 33.2558 16.1054 33.2293 16.0682C33.2027 16.031 33.1918 15.9856 33.1959 15.9401ZM5.4381 0.000216967C3.46387 -0.0145384 1.55826 0.723801 0.109352 2.06487C0.0476979 2.12094 0.00921594 2.19802 0.00145365 2.281C-0.00630863 2.36397 0.0172084 2.44685 0.0673933 2.51339L0.961546 3.72729C0.990519 3.76822 1.02815 3.80227 1.07177 3.82702C1.11539 3.85176 1.16392 3.86659 1.21392 3.87046C1.26392 3.87433 1.31415 3.86713 1.36106 3.84939C1.40796 3.83165 1.45038 3.80379 1.48531 3.7678C2.00606 3.25069 2.62451 2.84238 3.30463 2.56666C3.98475 2.29094 4.71294 2.15331 5.44678 2.1618C8.5141 2.1618 10.1158 4.45361 10.1158 6.71937C10.1158 9.17901 8.43308 10.9123 6.01395 10.9456C4.14462 10.9456 2.73538 9.71579 2.73538 8.08953C2.73699 7.67831 2.83044 7.27263 3.00892 6.90215C3.18741 6.53168 3.4464 6.20575 3.76699 5.9482C3.83525 5.89221 3.87858 5.81149 3.88753 5.72366C3.89647 5.63583 3.8703 5.54802 3.81473 5.47942L2.87428 4.30024C2.84589 4.26399 2.81045 4.23385 2.77011 4.21165C2.72977 4.18944 2.68535 4.17562 2.63953 4.17103C2.59371 4.16643 2.54744 4.17115 2.50349 4.18491C2.45954 4.19866 2.41883 4.22116 2.3838 4.25105C1.80781 4.71309 1.34218 5.29784 1.02087 5.96267C0.7007 6.62602 0.534047 7.35296 0.533279 8.08953C0.533279 10.8892 2.92782 13.084 5.99514 13.1014H6.03854C9.68026 13.0551 12.3135 10.3755 12.3135 6.71358C12.3135 3.46252 9.90163 0.000216967 5.4381 0.000216967Z" fill="white"/>
</svg>
