<svg width="26" height="26" viewBox="0 0 26 26" fill="none" xmlns="http://www.w3.org/2000/svg">
<path d="M10.1301 15.3967L18.5965 6.93041C18.8596 6.66734 19.1944 6.5358 19.601 6.5358C20.0075 6.5358 20.3424 6.66734 20.6054 6.93041C20.8685 7.19349 21.0001 7.52832 21.0001 7.93489C21.0001 8.34147 20.8685 8.6763 20.6054 8.93937L11.1346 18.4102C10.8476 18.6972 10.5128 18.8407 10.1301 18.8407C9.74749 18.8407 9.41266 18.6972 9.12567 18.4102L5.39474 14.6793C5.13166 14.4162 5.00012 14.0814 5.00012 13.6748C5.00012 13.2682 5.13166 12.9334 5.39474 12.6703C5.65782 12.4072 5.99264 12.2757 6.39922 12.2757C6.80579 12.2757 7.14062 12.4072 7.4037 12.6703L10.1301 15.3967Z" fill="#292D32"/>
</svg>
